<svg width="19" height="19" viewBox="0 0 19 19" fill="none" xmlns="http://www.w3.org/2000/svg">
<path fill-rule="evenodd" clip-rule="evenodd" d="M17.4167 9.5C17.4167 13.8722 13.8722 17.4167 9.5 17.4167C5.12774 17.4167 1.58333 13.8722 1.58333 9.5C1.58333 5.12774 5.12774 1.58333 9.5 1.58333C13.8722 1.58333 17.4167 5.12774 17.4167 9.5ZM19 9.5C19 14.7467 14.7467 19 9.5 19C4.2533 19 0 14.7467 0 9.5C0 4.2533 4.2533 0 9.5 0C14.7467 0 19 4.2533 19 9.5ZM8.70833 11.0833V5.54167H10.2917V11.0833H8.70833ZM8.70833 13.4583V11.875H10.2917V13.4583H8.70833Z" fill="#DD3F3F"/>
</svg>
